# xmcd
# 
# Track frame offsets:
#     150
#     12775
#     30730
#     45662
#     60322
#     77467
#     97962
#     117437
#     127865
#     142165
#     161770
#     180992
#     200127
#     212672
#     227200
#     242367
#     257165
#     272625
#     291455
#     308670
# 
# Disc length: 4266
# 
# Revision: 4
# Processed by: cddbd v1.5.2PL0 Copyright (c) Steve Scherf et al.
# Submitted via: BonkEnc v1.0.5
# 
DISCID=1310a814
DTITLE=Roupa Nova - Millennium
DYEAR=0
DGENRE=MPB
TTITLE0=Canção de Verão
TTITLE1=Sapato Velho
TTITLE2=Clarear
TTITLE3=Anjo
TTITLE4=Sábado
TTITLE5=Lumiar
TTITLE6=Vira de Lado
TTITLE7=Um Pouco de Amor
TTITLE8=Roupa Nova
TTITLE9=Vôo Livre
TTITLE10=Tributo ao Sorriso
TTITLE11=Fora do Ar
TTITLE12=Bem Simples
TTITLE13=Brisa da Manhã
TTITLE14=E o Espetáculo Continua
TTITLE15=Sensual
TTITLE16=A Primeira Vez
TTITLE17=Nos Bailes da Vida
TTITLE18=Baby
TTITLE19=Videogame
EXTD=
EXTT0=
EXTT1=
EXTT2=
EXTT3=
EXTT4=
EXTT5=
EXTT6=
EXTT7=
EXTT8=
EXTT9=
EXTT10=
EXTT11=
EXTT12=
EXTT13=
EXTT14=
EXTT15=
EXTT16=
EXTT17=
EXTT18=
EXTT19=
PLAYORDER=
